<svg id="visual" viewBox="0 0 900 600" width="900" height="600" xmlns="http://www.w3.org/2000/svg" xmlns:xlink="http://www.w3.org/1999/xlink" version="1.1"><path d="M0 103L82 109L164 97L245 115L327 73L409 67L491 151L573 55L655 145L736 121L818 121L900 139L900 0L818 0L736 0L655 0L573 0L491 0L409 0L327 0L245 0L164 0L82 0L0 0Z" fill="#c5f9f6"></path><path d="M0 181L82 193L164 211L245 181L327 187L409 133L491 247L573 163L655 277L736 181L818 193L900 205L900 137L818 119L736 119L655 143L573 53L491 149L409 65L327 71L245 113L164 95L82 107L0 101Z" fill="#b1eae7"></path><path d="M0 235L82 271L164 295L245 223L327 277L409 229L491 325L573 265L655 325L736 277L818 235L900 289L900 203L818 191L736 179L655 275L573 161L491 245L409 131L327 185L245 179L164 209L82 191L0 179Z" fill="#9edbd9"></path><path d="M0 439L82 481L164 487L245 367L327 403L409 403L491 409L573 493L655 439L736 475L818 379L900 409L900 287L818 233L736 275L655 323L573 263L491 323L409 227L327 275L245 221L164 293L82 269L0 233Z" fill="#8bccca"></path><path d="M0 601L82 601L164 601L245 601L327 601L409 601L491 601L573 601L655 601L736 601L818 601L900 601L900 407L818 377L736 473L655 437L573 491L491 407L409 401L327 401L245 365L164 485L82 479L0 437Z" fill="#77bebc"></path></svg>