<svg viewBox="0 0 640 400" data-background-color="#ffffff" preserveAspectRatio="xMidYMid meet" height="400" width="640" xmlns="http://www.w3.org/2000/svg" xmlns:xlink="http://www.w3.org/1999/xlink"><rect width="640" height="400" x="0" y="0" opacity="1" fill="#ffffff" data-fill-palette-color="background" id="background"></rect><g id="tight-bounds" transform="matrix(1,0,0,1,122.24000000000001,183.33555044683442)"><svg viewBox="0 0 395.52 33.328899106331136" height="33.328899106331136" width="395.52"><g><svg viewBox="0 0 466.3873620501473 39.30061016949153" height="33.328899106331136" width="395.52"><g><rect width="3.526536898820339" height="39.30061016949153" x="58.10905316488626" y="0" fill="#ea3c12" opacity="1" stroke-width="0" stroke="transparent" fill-opacity="1" class="rect-o-0" data-fill-palette-color="primary" rx="1%" id="o-0" data-palette-color="#ea3c12"></rect></g><g transform="matrix(1,0,0,1,70.86736205014728,0.0977627118644051)"><svg viewBox="0 0 395.52000000000004 39.10508474576272" height="39.10508474576272" width="395.52000000000004"><g id="textblocktransform"><svg viewBox="0 0 395.52000000000004 39.10508474576272" height="39.10508474576272" width="395.52000000000004" id="textblock"><g><svg viewBox="0 0 395.52000000000004 39.10508474576272" height="39.10508474576272" width="395.52000000000004"><g transform="matrix(1,0,0,1,0,0)"><svg width="395.52000000000004" viewBox="3.0299999713897705 -36.25 371.6000061035156 36.7400016784668" height="39.10508474576272" data-palette-color="#ea3c12"><path d="M34.08-17.46L34.08-1.93Q30.59-0.61 27.48-0.06 24.37 0.49 21.48 0.49L21.48 0.49Q16.99 0.49 13.55-0.73 10.11-1.95 7.76-4.2 5.42-6.45 4.22-9.61 3.03-12.77 3.03-16.65L3.03-16.65Q3.03-19.8 3.8-22.49 4.57-25.17 5.94-27.36 7.32-29.54 9.24-31.2 11.16-32.86 13.44-33.98 15.72-35.11 18.29-35.68 20.85-36.25 23.54-36.25L23.54-36.25Q24.41-36.25 25.54-36.18 26.66-36.11 27.91-35.96 29.15-35.82 30.46-35.56 31.76-35.3 33.03-34.94L33.03-34.94 31.93-29.71 31.45-29.49Q29.03-30.62 26.83-31.03 24.63-31.45 23.02-31.45L23.02-31.45Q20.19-31.45 17.91-30.47 15.63-29.49 14-27.72 12.38-25.95 11.5-23.47 10.62-21 10.62-18.02L10.62-18.02Q10.62-15.19 11.43-12.7 12.23-10.21 13.77-8.34 15.31-6.47 17.52-5.4 19.73-4.32 22.53-4.32L22.53-4.32Q23.61-4.32 25-4.49 26.39-4.66 27.59-5.05L27.59-5.05 27.59-17.46 34.08-17.46ZM64.82 0L62.11-8.76 48.87-8.76 46.21 0 39.89 0 51.93-35.77 60.54-35.77 72.56 0 64.82 0ZM50.19-13.31L60.76-13.31 57-25.81 55.73-31.05 55.25-31.05 53.98-25.81 50.19-13.31ZM88.01-4.32L88.01-4.32Q89.33-4.32 90.49-4.64 91.65-4.96 92.51-5.58 93.38-6.2 93.88-7.12 94.38-8.03 94.38-9.23L94.38-9.23Q94.38-10.67 93.67-11.68 92.96-12.7 91.82-13.45 90.67-14.21 89.19-14.82 87.71-15.43 86.16-16.09 84.61-16.75 83.14-17.54 81.66-18.33 80.51-19.45 79.37-20.56 78.66-22.11 77.95-23.66 77.95-25.81L77.95-25.81Q77.95-28.22 78.88-30.15 79.8-32.08 81.49-33.44 83.17-34.79 85.54-35.52 87.91-36.25 90.82-36.25L90.82-36.25Q91.62-36.25 92.71-36.19 93.79-36.13 95.03-35.97 96.26-35.82 97.59-35.56 98.92-35.3 100.24-34.94L100.24-34.94 99.12-29.69 98.68-29.47Q97.46-30 96.27-30.38 95.09-30.76 94.01-31.01 92.94-31.25 92-31.35 91.06-31.45 90.35-31.45L90.35-31.45Q89.11-31.45 88.08-31.15 87.06-30.86 86.32-30.31 85.59-29.76 85.2-28.94 84.81-28.13 84.81-27.08L84.81-27.08Q84.81-25.63 85.52-24.62 86.23-23.61 87.39-22.83 88.54-22.05 90.03-21.41 91.52-20.78 93.06-20.12 94.6-19.46 96.09-18.68 97.58-17.9 98.74-16.8 99.9-15.7 100.61-14.21 101.31-12.72 101.31-10.64L101.31-10.64Q101.31-8.28 100.35-6.24 99.38-4.2 97.6-2.71 95.82-1.22 93.31-0.37 90.79 0.49 87.69 0.49L87.69 0.49Q86.47 0.49 85.11 0.34 83.76 0.2 82.33-0.1 80.9-0.39 79.46-0.83 78.02-1.27 76.68-1.86L76.68-1.86 77.78-7.1 78.29-7.35Q80.98-5.98 83.36-5.15 85.74-4.32 88.01-4.32ZM125.58-4.32L125.58-4.32Q128.02-4.32 129.99-5.4 131.95-6.47 133.32-8.3 134.68-10.13 135.42-12.56 136.15-14.99 136.15-17.7L136.15-17.7Q136.15-20.58 135.34-23.1 134.54-25.61 133.07-27.47 131.61-29.32 129.59-30.38 127.58-31.45 125.16-31.45L125.16-31.45Q122.7-31.45 120.73-30.36 118.77-29.27 117.41-27.42 116.06-25.56 115.34-23.13 114.62-20.7 114.62-18.02L114.62-18.02Q114.62-15.14 115.42-12.63 116.23-10.13 117.68-8.29 119.13-6.45 121.15-5.38 123.16-4.32 125.58-4.32ZM124.72 0.49L124.72 0.49Q122.26 0.49 119.99-0.05 117.72-0.59 115.75-1.62 113.79-2.66 112.18-4.17 110.56-5.69 109.42-7.63 108.27-9.57 107.63-11.94 107-14.31 107-17.07L107-17.07Q107-19.9 107.67-22.41 108.34-24.93 109.56-27.06 110.78-29.2 112.52-30.9 114.25-32.59 116.36-33.79 118.47-34.99 120.93-35.62 123.38-36.25 126.07-36.25L126.07-36.25Q128.51-36.25 130.77-35.73 133.02-35.21 134.99-34.17 136.96-33.13 138.57-31.63 140.18-30.13 141.34-28.17 142.5-26.22 143.13-23.84 143.77-21.46 143.77-18.7L143.77-18.7Q143.77-15.87 143.11-13.35 142.45-10.84 141.23-8.7 140.01-6.57 138.29-4.87 136.56-3.17 134.45-1.98 132.34-0.78 129.88-0.15 127.41 0.49 124.72 0.49ZM156.41 0L150.11 0 152.92-35.77 163.42-35.77 169.91-15.04 171.3-9.08 171.79-9.08 173.23-15.06 179.73-35.77 190.76-35.77 193.57 0 185.78 0 184.39-25.39 184.27-31.4 183.73-31.4 182.27-25.61 174.48-0.71 167.76-0.71 159.93-25.56 158.41-31.4 157.88-31.4 157.8-25.44 156.41 0ZM223.99 0L202.04 0 202.04-35.77 224.6-35.77 223.72-30.96 209.39-30.96 209.39-20.83 221.96-20.83 221.15-16.26 209.39-16.26 209.39-4.81 224.87-4.81 223.99 0ZM248.01-30.96L248.01 0 240.66 0 240.66-30.96 229.31-30.96 230.19-35.77 259.63-35.77 258.75-30.96 248.01-30.96ZM278.28-13.57L273.08-13.57 273.08 0 265.73 0 265.73-35.77 277.64-35.77Q280.87-35.77 283.32-35.02 285.77-34.28 287.45-33 289.12-31.71 289.97-30 290.83-28.3 290.83-26.39L290.83-26.39Q290.83-24.68 290.19-23.18 289.56-21.68 288.54-20.41 287.53-19.14 286.29-18.1 285.04-17.07 283.8-16.28L283.8-16.28 294 0 285.41 0 278.28-13.57ZM273.08-30.96L273.08-18.14 279.82-18.14Q280.62-18.58 281.31-19.25 281.99-19.92 282.5-20.76 283.01-21.61 283.31-22.62 283.6-23.63 283.6-24.78L283.6-24.78Q283.6-26.1 283.17-27.23 282.75-28.37 281.9-29.19 281.06-30 279.79-30.48 278.52-30.96 276.84-30.96L276.84-30.96 273.08-30.96ZM307.45-35.77L307.45 0 300.1 0 300.1-35.77 307.45-35.77ZM344.48-6.91L344.48-3.34Q343.26-2.29 341.74-1.56 340.21-0.83 338.58-0.38 336.94 0.07 335.32 0.28 333.69 0.49 332.28 0.49L332.28 0.49Q328.64 0.49 325.51-0.74 322.39-1.98 320.11-4.26 317.82-6.54 316.52-9.75 315.21-12.96 315.21-16.92L315.21-16.92Q315.21-19.97 315.98-22.6 316.75-25.22 318.13-27.37 319.51-29.52 321.4-31.18 323.29-32.84 325.53-33.96 327.76-35.08 330.26-35.67 332.77-36.25 335.35-36.25L335.35-36.25Q336.18-36.25 337.26-36.18 338.33-36.11 339.55-35.96 340.77-35.82 342.07-35.56 343.36-35.3 344.63-34.94L344.63-34.94 343.51-29.69 343.02-29.47Q340.63-30.59 338.5-31.02 336.38-31.45 334.82-31.45L334.82-31.45Q332.16-31.45 329.95-30.46 327.74-29.47 326.15-27.71 324.56-25.95 323.68-23.52 322.8-21.09 322.8-18.24L322.8-18.24Q322.8-15.38 323.67-12.89 324.54-10.4 326.19-8.56 327.83-6.71 330.23-5.66 332.62-4.61 335.7-4.61L335.7-4.61Q337.84-4.61 340.05-5.16 342.26-5.71 344.48-6.91L344.48-6.91ZM361.33-4.32L361.33-4.32Q362.65-4.32 363.81-4.64 364.97-4.96 365.83-5.58 366.7-6.2 367.2-7.12 367.7-8.03 367.7-9.23L367.7-9.23Q367.7-10.67 366.99-11.68 366.28-12.7 365.14-13.45 363.99-14.21 362.51-14.82 361.03-15.43 359.48-16.09 357.93-16.75 356.46-17.54 354.98-18.33 353.83-19.45 352.68-20.56 351.98-22.11 351.27-23.66 351.27-25.81L351.27-25.81Q351.27-28.22 352.2-30.15 353.12-32.08 354.81-33.44 356.49-34.79 358.86-35.52 361.23-36.25 364.14-36.25L364.14-36.25Q364.94-36.25 366.03-36.19 367.11-36.13 368.35-35.97 369.58-35.82 370.91-35.56 372.24-35.3 373.56-34.94L373.56-34.94 372.44-29.69 372-29.47Q370.78-30 369.59-30.38 368.41-30.76 367.33-31.01 366.26-31.25 365.32-31.35 364.38-31.45 363.67-31.45L363.67-31.45Q362.43-31.45 361.4-31.15 360.38-30.86 359.64-30.31 358.91-29.76 358.52-28.94 358.13-28.13 358.13-27.08L358.13-27.08Q358.13-25.63 358.84-24.62 359.55-23.61 360.7-22.83 361.86-22.05 363.35-21.41 364.84-20.78 366.38-20.12 367.92-19.46 369.41-18.68 370.9-17.9 372.06-16.8 373.22-15.7 373.93-14.21 374.63-12.72 374.63-10.64L374.63-10.64Q374.63-8.28 373.67-6.24 372.7-4.2 370.92-2.71 369.14-1.22 366.63-0.37 364.11 0.49 361.01 0.49L361.01 0.49Q359.79 0.49 358.43 0.34 357.08 0.2 355.65-0.1 354.22-0.39 352.78-0.83 351.34-1.27 350-1.86L350-1.86 351.1-7.1 351.61-7.35Q354.3-5.98 356.68-5.15 359.06-4.32 361.33-4.32Z" opacity="1" transform="matrix(1,0,0,1,0,0)" fill="#ea3c12" class="undefined-text-0" data-fill-palette-color="primary" id="text-0"></path></svg></g></svg></g></svg></g></svg></g><g transform="matrix(1,0,0,1,0,0.0977627118644051)"><svg viewBox="0 0 48.877281178445585 39.10508474576272" height="39.10508474576272" width="48.877281178445585"><g><svg xmlns="http://www.w3.org/2000/svg" version="1.1" data-icon="dial" data-container-transform="translate(0 2)" viewBox="0 2 15 12.00100040435791" x="0" y="0" height="39.10508474576272" width="48.877281178445585" class="icon-icon-0" data-fill-palette-color="accent" id="icon-0"><path d="M7.5 0c-4.165 0-7.5 3.335-7.5 7.5a0.5 0.5 0 1 0 1 0c0-3.635 2.865-6.5 6.5-6.5s6.5 2.865 6.5 6.5a0.5 0.5 0 1 0 1 0c0-4.165-3.335-7.5-7.5-7.5z m-0.5 3.063c-2.246 0.252-4 2.124-4 4.438 0 2.485 2.015 4.5 4.5 4.5s4.5-2.015 4.5-4.5c0-2.314-1.754-4.185-4-4.438v4.438c0 0.3-0.2 0.5-0.5 0.5s-0.5-0.2-0.5-0.5v-4.438z" transform="translate(0 2)" fill="#ea3c12" data-fill-palette-color="accent"></path></svg></g></svg></g></svg></g><defs></defs></svg><rect width="395.52" height="33.328899106331136" fill="none" stroke="none" visibility="hidden"></rect></g></svg>