<?xml version="1.0" encoding="UTF-8" standalone="no"?>
<svg
   xmlns:dc="http://purl.org/dc/elements/1.1/"
   xmlns:cc="http://creativecommons.org/ns#"
   xmlns:rdf="http://www.w3.org/1999/02/22-rdf-syntax-ns#"
   xmlns:svg="http://www.w3.org/2000/svg"
   xmlns="http://www.w3.org/2000/svg"
   xmlns:sodipodi="http://sodipodi.sourceforge.net/DTD/sodipodi-0.dtd"
   xmlns:inkscape="http://www.inkscape.org/namespaces/inkscape"
   viewBox="0 0 640 75"
   data-background-color="#ea3c12"
   preserveAspectRatio="xMidYMid meet"
   height="75"
   width="640"
   version="1.1"
   id="svg96"
   sodipodi:docname="Logo_fondont.svg"
   inkscape:version="1.0.2-2 (e86c870879, 2021-01-15)">
  <metadata
     id="metadata102">
    <rdf:RDF>
      <cc:Work
         rdf:about="">
        <dc:format>image/svg+xml</dc:format>
        <dc:type
           rdf:resource="http://purl.org/dc/dcmitype/StillImage" />
        <dc:title></dc:title>
      </cc:Work>
    </rdf:RDF>
  </metadata>
  <defs
     id="defs100" />
  <sodipodi:namedview
     pagecolor="#ffffff"
     bordercolor="#666666"
     borderopacity="1"
     objecttolerance="10"
     gridtolerance="10"
     guidetolerance="10"
     inkscape:pageopacity="0"
     inkscape:pageshadow="2"
     inkscape:window-width="1920"
     inkscape:window-height="1017"
     id="namedview98"
     showgrid="false"
     inkscape:zoom="1.4142136"
     inkscape:cx="344.40434"
     inkscape:cy="21.341942"
     inkscape:window-x="-8"
     inkscape:window-y="-8"
     inkscape:window-maximized="1"
     inkscape:current-layer="svg96"
     inkscape:document-rotation="0" />
  <g
     id="tight-bounds"
     transform="matrix(1.6034161,0,0,1.6034161,-0.01674511,11.797141)">
    <svg
       viewBox="0 0 395.52 33.328899"
       height="33.328899"
       width="395.51999"
       version="1.1"
       id="svg91">
      <g
         id="g87">
        <svg
           viewBox="0 0 466.38736 39.30061"
           height="33.328899"
           width="395.51999"
           version="1.1"
           id="svg85">
          <g
             id="g59">
            <rect
               width="3.5265369"
               height="39.30061"
               x="58.109055"
               y="0"
               fill="#ffffff"
               opacity="1"
               stroke-width="0"
               stroke="transparent"
               fill-opacity="1"
               class="rect-o-0"
               data-fill-palette-color="primary"
               rx="1%"
               id="o-0"
               data-palette-color="#ffffff" />
          </g>
          <g
             transform="translate(70.867362,0.09776271)"
             id="g74">
            <svg
               viewBox="0 0 395.52 39.105085"
               height="39.105083"
               width="395.51999"
               version="1.1"
               id="svg72">
              <g
                 id="textblocktransform">
                <svg
                   viewBox="0 0 395.52 39.105085"
                   height="39.105083"
                   width="395.51999"
                   id="textblock"
                   version="1.1">
                  <g
                     id="g68">
                    <svg
                       viewBox="0 0 395.52 39.105085"
                       height="39.105083"
                       width="395.51999"
                       version="1.1"
                       id="svg66">
                      <g
                         id="g64">
                        <svg
                           width="395.51999"
                           viewBox="3.03 -36.25 371.60001 36.740002"
                           height="39.105083"
                           data-palette-color="#ffffff"
                           version="1.1"
                           id="svg62">
                          <path
                             d="m 34.08,-17.46 v 15.53 q -3.49,1.32 -6.6,1.87 -3.11,0.55 -6,0.55 v 0 q -4.49,0 -7.93,-1.22 Q 10.11,-1.95 7.76,-4.2 5.42,-6.45 4.22,-9.61 3.03,-12.77 3.03,-16.65 v 0 q 0,-3.15 0.77,-5.84 0.77,-2.68 2.14,-4.87 1.38,-2.18 3.3,-3.84 1.92,-1.66 4.2,-2.78 2.28,-1.13 4.85,-1.7 2.56,-0.57 5.25,-0.57 v 0 q 0.87,0 2,0.07 1.12,0.07 2.37,0.22 1.24,0.14 2.55,0.4 1.3,0.26 2.57,0.62 v 0 l -1.1,5.23 -0.48,0.22 q -2.42,-1.13 -4.62,-1.54 -2.2,-0.42 -3.81,-0.42 v 0 q -2.83,0 -5.11,0.98 -2.28,0.98 -3.91,2.75 -1.62,1.77 -2.5,4.25 -0.88,2.47 -0.88,5.45 v 0 q 0,2.83 0.81,5.32 0.8,2.49 2.34,4.36 1.54,1.87 3.75,2.94 2.21,1.08 5.01,1.08 v 0 q 1.08,0 2.47,-0.17 1.39,-0.17 2.59,-0.56 v 0 -12.41 z M 64.82,0 62.11,-8.76 H 48.87 L 46.21,0 h -6.32 l 12.04,-35.77 h 8.61 L 72.56,0 Z M 50.19,-13.31 H 60.76 L 57,-25.81 55.73,-31.05 h -0.48 l -1.27,5.24 z m 37.82,8.99 v 0 q 1.32,0 2.48,-0.32 1.16,-0.32 2.02,-0.94 0.87,-0.62 1.37,-1.54 0.5,-0.91 0.5,-2.11 v 0 q 0,-1.44 -0.71,-2.45 -0.71,-1.02 -1.85,-1.77 -1.15,-0.76 -2.63,-1.37 -1.48,-0.61 -3.03,-1.27 -1.55,-0.66 -3.02,-1.45 -1.48,-0.79 -2.63,-1.91 -1.14,-1.11 -1.85,-2.66 -0.71,-1.55 -0.71,-3.7 v 0 q 0,-2.41 0.93,-4.34 0.92,-1.93 2.61,-3.29 1.68,-1.35 4.05,-2.08 2.37,-0.73 5.28,-0.73 v 0 q 0.8,0 1.89,0.06 1.08,0.06 2.32,0.22 1.23,0.15 2.56,0.41 1.33,0.26 2.65,0.62 v 0 l -1.12,5.25 -0.44,0.22 q -1.22,-0.53 -2.41,-0.91 -1.18,-0.38 -2.26,-0.63 -1.07,-0.24 -2.01,-0.34 -0.94,-0.1 -1.65,-0.1 v 0 q -1.24,0 -2.27,0.3 -1.02,0.29 -1.76,0.84 -0.73,0.55 -1.12,1.37 -0.39,0.81 -0.39,1.86 v 0 q 0,1.45 0.71,2.46 0.71,1.01 1.87,1.79 1.15,0.78 2.64,1.42 1.49,0.63 3.03,1.29 1.54,0.66 3.03,1.44 1.49,0.78 2.65,1.88 1.16,1.1 1.87,2.59 0.7,1.49 0.7,3.57 v 0 q 0,2.36 -0.96,4.4 -0.97,2.04 -2.75,3.53 -1.78,1.49 -4.29,2.34 -2.52,0.86 -5.62,0.86 v 0 Q 86.47,0.49 85.11,0.34 83.76,0.2 82.33,-0.1 80.9,-0.39 79.46,-0.83 78.02,-1.27 76.68,-1.86 v 0 l 1.1,-5.24 0.51,-0.25 q 2.69,1.37 5.07,2.2 2.38,0.83 4.65,0.83 z m 37.57,0 v 0 q 2.44,0 4.41,-1.08 1.96,-1.07 3.33,-2.9 1.36,-1.83 2.1,-4.26 0.73,-2.43 0.73,-5.14 v 0 q 0,-2.88 -0.81,-5.4 -0.8,-2.51 -2.27,-4.37 -1.46,-1.85 -3.48,-2.91 -2.01,-1.07 -4.43,-1.07 v 0 q -2.46,0 -4.43,1.09 -1.96,1.09 -3.32,2.94 -1.35,1.86 -2.07,4.29 -0.72,2.43 -0.72,5.11 v 0 q 0,2.88 0.8,5.39 0.81,2.5 2.26,4.34 1.45,1.84 3.47,2.91 2.01,1.06 4.43,1.06 z m -0.86,4.81 v 0 q -2.46,0 -4.73,-0.54 -2.27,-0.54 -4.24,-1.57 -1.96,-1.04 -3.57,-2.55 -1.62,-1.52 -2.76,-3.46 -1.15,-1.94 -1.79,-4.31 -0.63,-2.37 -0.63,-5.13 v 0 q 0,-2.83 0.67,-5.34 0.67,-2.52 1.89,-4.65 1.22,-2.14 2.96,-3.84 1.73,-1.69 3.84,-2.89 2.11,-1.2 4.57,-1.83 2.45,-0.63 5.14,-0.63 v 0 q 2.44,0 4.7,0.52 2.25,0.52 4.22,1.56 1.97,1.04 3.58,2.54 1.61,1.5 2.77,3.46 1.16,1.95 1.79,4.33 0.64,2.38 0.64,5.14 v 0 q 0,2.83 -0.66,5.35 -0.66,2.51 -1.88,4.65 -1.22,2.13 -2.94,3.83 -1.73,1.7 -3.84,2.89 -2.11,1.2 -4.57,1.83 -2.47,0.64 -5.16,0.64 z M 156.41,0 h -6.3 l 2.81,-35.77 h 10.5 l 6.49,20.73 1.39,5.96 h 0.49 l 1.44,-5.98 6.5,-20.71 h 11.03 L 193.57,0 h -7.79 l -1.39,-25.39 -0.12,-6.01 h -0.54 l -1.46,5.79 -7.79,24.9 h -6.72 l -7.83,-24.85 -1.52,-5.84 h -0.53 l -0.08,5.96 z m 67.58,0 h -21.95 v -35.77 h 22.56 l -0.88,4.81 h -14.33 v 10.13 h 12.57 l -0.81,4.57 h -11.76 v 11.45 h 15.48 z m 24.02,-30.96 V 0 h -7.35 v -30.96 h -11.35 l 0.88,-4.81 h 29.44 l -0.88,4.81 z m 30.27,17.39 h -5.2 V 0 h -7.35 v -35.77 h 11.91 q 3.23,0 5.68,0.75 2.45,0.74 4.13,2.02 1.67,1.29 2.52,3 0.86,1.7 0.86,3.61 v 0 q 0,1.71 -0.64,3.21 -0.63,1.5 -1.65,2.77 -1.01,1.27 -2.25,2.31 -1.25,1.03 -2.49,1.82 v 0 L 294,0 h -8.59 z m -5.2,-17.39 v 12.82 h 6.74 q 0.8,-0.44 1.49,-1.11 0.68,-0.67 1.19,-1.51 0.51,-0.85 0.81,-1.86 0.29,-1.01 0.29,-2.16 v 0 q 0,-1.32 -0.43,-2.45 -0.42,-1.14 -1.27,-1.96 -0.84,-0.81 -2.11,-1.29 -1.27,-0.48 -2.95,-0.48 v 0 z m 34.37,-4.81 V 0 h -7.35 v -35.77 z m 37.03,28.86 v 3.57 q -1.22,1.05 -2.74,1.78 -1.53,0.73 -3.16,1.18 -1.64,0.45 -3.26,0.66 -1.63,0.21 -3.04,0.21 v 0 q -3.64,0 -6.77,-1.23 -3.12,-1.24 -5.4,-3.52 -2.29,-2.28 -3.59,-5.49 -1.31,-3.21 -1.31,-7.17 v 0 q 0,-3.05 0.77,-5.68 0.77,-2.62 2.15,-4.77 1.38,-2.15 3.27,-3.81 1.89,-1.66 4.13,-2.78 2.23,-1.12 4.73,-1.71 2.51,-0.58 5.09,-0.58 v 0 q 0.83,0 1.91,0.07 1.07,0.07 2.29,0.22 1.22,0.14 2.52,0.4 1.29,0.26 2.56,0.62 v 0 l -1.12,5.25 -0.49,0.22 q -2.39,-1.12 -4.52,-1.55 -2.12,-0.43 -3.68,-0.43 v 0 q -2.66,0 -4.87,0.99 -2.21,0.99 -3.8,2.75 -1.59,1.76 -2.47,4.19 -0.88,2.43 -0.88,5.28 v 0 q 0,2.86 0.87,5.35 0.87,2.49 2.52,4.33 1.64,1.85 4.04,2.9 2.39,1.05 5.47,1.05 v 0 q 2.14,0 4.35,-0.55 2.21,-0.55 4.43,-1.75 z m 16.85,2.59 v 0 q 1.32,0 2.48,-0.32 1.16,-0.32 2.02,-0.94 0.87,-0.62 1.37,-1.54 0.5,-0.91 0.5,-2.11 v 0 q 0,-1.44 -0.71,-2.45 -0.71,-1.02 -1.85,-1.77 -1.15,-0.76 -2.63,-1.37 -1.48,-0.61 -3.03,-1.27 -1.55,-0.66 -3.02,-1.45 -1.48,-0.79 -2.63,-1.91 -1.15,-1.11 -1.85,-2.66 -0.71,-1.55 -0.71,-3.7 v 0 q 0,-2.41 0.93,-4.34 0.92,-1.93 2.61,-3.29 1.68,-1.35 4.05,-2.08 2.37,-0.73 5.28,-0.73 v 0 q 0.8,0 1.89,0.06 1.08,0.06 2.32,0.22 1.23,0.15 2.56,0.41 1.33,0.26 2.65,0.62 v 0 l -1.12,5.25 -0.44,0.22 q -1.22,-0.53 -2.41,-0.91 -1.18,-0.38 -2.26,-0.63 -1.07,-0.24 -2.01,-0.34 -0.94,-0.1 -1.65,-0.1 v 0 q -1.24,0 -2.27,0.3 -1.02,0.29 -1.76,0.84 -0.73,0.55 -1.12,1.37 -0.39,0.81 -0.39,1.86 v 0 q 0,1.45 0.71,2.46 0.71,1.01 1.86,1.79 1.16,0.78 2.65,1.42 1.49,0.63 3.03,1.29 1.54,0.66 3.03,1.44 1.49,0.78 2.65,1.88 1.16,1.1 1.87,2.59 0.7,1.49 0.7,3.57 v 0 q 0,2.36 -0.96,4.4 -0.97,2.04 -2.75,3.53 -1.78,1.49 -4.29,2.34 -2.52,0.86 -5.62,0.86 v 0 q -1.22,0 -2.58,-0.15 -1.35,-0.14 -2.78,-0.44 -1.43,-0.29 -2.87,-0.73 -1.44,-0.44 -2.78,-1.03 v 0 l 1.1,-5.24 0.51,-0.25 q 2.69,1.37 5.07,2.2 2.38,0.83 4.65,0.83 z"
                             opacity="1"
                             fill="#ffffff"
                             class="undefined-text-0"
                             data-fill-palette-color="primary"
                             id="text-0" />
                        </svg>
                      </g>
                    </svg>
                  </g>
                </svg>
              </g>
            </svg>
          </g>
          <g
             transform="translate(0,0.09776271)"
             id="g83">
            <svg
               viewBox="0 0 48.877281 39.105085"
               height="39.105083"
               width="48.877281"
               version="1.1"
               id="svg81">
              <g
                 id="g79">
                <svg
                   version="1.1"
                   data-icon="dial"
                   data-container-transform="translate(0 2)"
                   viewBox="0 2 15 12.001"
                   x="0"
                   y="0"
                   height="39.105083"
                   width="48.877281"
                   class="icon-icon-0"
                   data-fill-palette-color="accent"
                   id="icon-0">
                  <path
                     d="M 7.5,0 C 3.335,0 0,3.335 0,7.5 a 0.5,0.5 0 1 0 1,0 C 1,3.865 3.865,1 7.5,1 11.135,1 14,3.865 14,7.5 a 0.5,0.5 0 1 0 1,0 C 15,3.335 11.665,0 7.5,0 Z M 7,3.063 C 4.754,3.315 3,5.187 3,7.501 c 0,2.485 2.015,4.5 4.5,4.5 2.485,0 4.5,-2.015 4.5,-4.5 C 12,5.187 10.246,3.316 8,3.063 v 4.438 c 0,0.3 -0.2,0.5 -0.5,0.5 -0.3,0 -0.5,-0.2 -0.5,-0.5 z"
                     transform="translate(0,2)"
                     fill="#ffffff"
                     data-fill-palette-color="accent"
                     id="path76" />
                </svg>
              </g>
            </svg>
          </g>
        </svg>
      </g>
      <defs
         id="defs89" />
    </svg>
    <rect
       width="395.51999"
       height="33.328899"
       fill="none"
       stroke="none"
       visibility="hidden"
       id="rect93"
       x="0"
       y="0" />
  </g>
</svg>
