<?xml version="1.0" standalone="no"?>
<svg viewBox="0 0 200 200" xmlns="http://www.w3.org/2000/svg">
  <path fill="#FBBF24" d="M34.7,-60.1C44.1,-54.8,50,-43.5,58.2,-32.5C66.4,-21.5,77,-10.8,81.2,2.4C85.3,15.6,83.2,31.2,75.5,43.1C67.8,55,54.5,63.3,41,69.6C27.5,76,13.8,80.5,2,77.1C-9.8,73.6,-19.6,62.2,-29.6,53.8C-39.6,45.4,-49.8,40,-60.4,31.6C-71.1,23.1,-82.2,11.5,-82.4,-0.1C-82.5,-11.7,-71.6,-23.4,-63.8,-36.8C-56,-50.2,-51.2,-65.3,-41.1,-70.2C-31,-75,-15.5,-69.5,-1.4,-67.1C12.7,-64.7,25.4,-65.4,34.7,-60.1Z" transform="translate(100 100)" />
</svg>
