<?xml version="1.0" standalone="no"?>
<svg viewBox="0 0 200 200" xmlns="http://www.w3.org/2000/svg">
  <path fill="#FDE047" d="M40.2,-60.1C54.7,-53.3,70.7,-46.5,77.5,-34.5C84.3,-22.6,81.7,-5.6,76.2,8.7C70.7,23.1,62.2,34.8,50.5,38.2C38.9,41.6,24.1,36.6,11.9,40C-0.4,43.4,-10,55.2,-18.4,55.9C-26.9,56.6,-34,46.1,-43,36.7C-51.9,27.3,-62.6,18.9,-61.7,10.2C-60.8,1.5,-48.4,-7.5,-45.1,-22.9C-41.7,-38.4,-47.3,-60.4,-41.3,-71C-35.3,-81.7,-17.6,-81.2,-2.4,-77.5C12.9,-73.8,25.8,-66.9,40.2,-60.1Z" transform="translate(100 100)" />
</svg>
